# xmcd
#
# Track frame offsets:
#	150
#	23766
#	44079
#	68433
#	82930
#	101252
#	122916
#	138316
#	160338
#	173182
#	189483
#	207663
#
# Disc length: 3037 seconds
#
# Revision: 2
# Processed by: cddbd v1.5.2PL0 Copyright (c) Steve Scherf et al.
# Submitted via: EasyCDDAExtractor 11.0.2.1
#
DISCID=a00bdb0c
DTITLE=Alexandru - Deplin
DYEAR=2009
DGENRE=Contemporary Christian
TTITLE0=Duh prea Sfint
TTITLE1=Vine o zi
TTITLE2=Deplin
TTITLE3=Eu cred
TTITLE4=Cu Tine Doamne
TTITLE5=Privesc la ceruri
TTITLE6=La Tine vin
TTITLE7=E viu
TTITLE8=Te iubesc Isus
TTITLE9=Ruga mea
TTITLE10=Doamne Te iubesc
TTITLE11=Spre tara Ta
EXTD=
EXTT0=
EXTT1=
EXTT2=
EXTT3=
EXTT4=
EXTT5=
EXTT6=
EXTT7=
EXTT8=
EXTT9=
EXTT10=
EXTT11=
PLAYORDER=
